<svg xmlns="http://www.w3.org/2000/svg" viewBox="0 0 360 180" role="img" aria-labelledby="title desc">
  <title id="title">Kusina AI Logo</title>
  <desc id="desc">Green cloche with KUSINA AI text and underline</desc>
  <g fill="none" fill-rule="evenodd">
    <path d="M50 94c0-7 4-13 10-17L176 8c3-2 6-2 9 0l116 69c6 4 10 10 10 17v10H50z" fill="#2f5d18"/>
    <rect x="171" y="2" width="18" height="14" rx="7" fill="#2f5d18"/>
    <ellipse cx="127" cy="79" rx="27" ry="14" fill="#f5f7ef" transform="rotate(26 127 79)"/>
    <g transform="translate(230 73) rotate(-27)">
      <rect x="0" y="0" width="30" height="4" rx="2" fill="#f5f7ef"/>
      <rect x="2" y="7" width="28" height="4" rx="2" fill="#f5f7ef"/>
      <rect x="4" y="14" width="26" height="4" rx="2" fill="#f5f7ef"/>
    </g>
    <rect x="50" y="92" width="260" height="11" rx="5" fill="#2f5d18"/>
    <text x="180" y="132" text-anchor="middle" font-family="Manrope, Arial, sans-serif" font-size="40" letter-spacing="4" fill="#2f5d18">KUSINA AI</text>
    <rect x="35" y="151" width="290" height="11" rx="5" fill="#2f5d18"/>
  </g>
</svg>
